<svg xmlns="http://www.w3.org/2000/svg" viewBox="0 0 64 64" role="img" aria-labelledby="title">
  <title id="title">Voluntariado</title>
  <g fill="none" stroke="#167A3A" stroke-width="2.8" stroke-linecap="round" stroke-linejoin="round">
    <style>.accent{stroke:#26A69A;}</style>
    <circle cx="23" cy="23" r="6"/>
<circle class="accent" cx="41" cy="23" r="6"/>
<path d="M11 51c1-12 5-19 12-19 4 0 7 3 9 7"/>
<path class="accent" d="M53 51c-1-12-5-19-12-19-4 0-7 3-9 7"/>
<path d="M32 53c-6-5-11-9-11-15 0-6 8-8 11-2 3-6 11-4 11 2 0 6-5 10-11 15Z"/>
  </g>
</svg>
